<?xml version="1.0" encoding="utf-8"?>
<!-- Generator: Adobe Illustrator 25.3.0, SVG Export Plug-In . SVG Version: 6.00 Build 0)  -->
<svg version="1.1" id="Capa_1" xmlns="http://www.w3.org/2000/svg" xmlns:xlink="http://www.w3.org/1999/xlink" x="0px" y="0px"
	 viewBox="0 0 88.7 138.5" style="enable-background:new 0 0 88.7 138.5;" xml:space="preserve">
<style type="text/css">
	.st0{fill:#F1F1F1;}
	.st1{fill:#CBCBCB;}
	.st2{fill:#BBBBBB;}
	.st3{fill:#415E72;}
	.st4{fill:#FC5D65;}
	.st5{fill:#638395;}
	.st6{fill:#344D5B;}
	.st7{fill:#DADBDC;}
	.st8{fill:#E44E5C;}
	.st9{fill:#FDC85B;}
	.st10{fill:#E5E5E5;}
	.st11{fill:#333333;}
	.st12{fill:#B2B2B2;}
	.st13{fill:#E9AD44;}
</style>
<g id="Capa_1_1_">
	<g>
		<path class="st0" d="M84.4,64.7c-0.1-0.3-0.2-0.5-0.2-0.9c0-0.1,0-0.1,0-0.2L84,63.5L84.2,44c0-0.1-0.1-0.2-0.1-0.2
			c-0.6,0.5-0.4,1.2-0.4,1.8c0,5.8,0,11.6,0,17.4c-0.1-0.4-0.4-0.7-0.7-1.1c-3.7-4.9-8.7-7.9-14.6-9.2c-5-0.7-9.9-0.2-14.9-0.3
			c-1,0-1.3,0.5-1.4,1.5c0,1.4,0.1,2.8-0.1,4.2c-0.3,3.4-1.9,5.8-5.1,7.1c-0.3,0.1-0.7,0.3-0.7,0.7c0.3,0.9,1.2,0.8,1.9,1.1
			c4.9,1.8,7.9,5.1,8.7,10.3c0.3,2.2,0,4.4,0.7,6.5c1.6,6.4,7.3,11.2,13.9,11.6c0.8,0,1.6,0.2,2.3-0.3c0.2-0.1,0.4-0.2,0.6-0.2
			c6.3-0.3,12.4-6.8,13-13.1C87.7,75.7,87.2,70,84.4,64.7z"/>
		<path class="st1" d="M77.4,107.9c3.2,9.9,6.5,19.9,9.7,29.8c0.1,0.3,0.2,0.5,0.3,0.8c-23,0-46,0-69,0c-0.4-0.4-0.2-0.9-0.1-1.4
			c2.1-8.4,4.3-16.7,6.5-25c0.1-0.4,0.3-0.9,0.7-1.1c1.8-0.2,3.6,0.2,5.3,0.5c2.9,0.4,5.8,0.4,8.7,0.8c0.8,0.7,0,1-0.3,1.4
			c-0.7,0.6-1.4,1.3-1.9,2.1c-2.3,3.2-2.3,7.5,0,10.8c2.2,3.2,6.4,4.8,10.1,3.8c3.8-1,6.6-4.1,7-8c0.4-3.5-0.8-6.3-3.4-8.5
			c-0.4-0.3-1.2-0.6-0.7-1.4c1.4-0.4,2.9-0.3,4.4-0.4c7.2-0.6,14.3-1.9,21.3-3.8C76.4,108,76.9,107.8,77.4,107.9z"/>
		<path class="st2" d="M25.4,111.2c-1.1,4.3-2.3,8.6-3.4,13c-1.2,4.8-2.6,9.5-3.6,14.3c-5.2,0-10.5,0-15.7,0c0.6-3,1.8-5.8,2.7-8.7
			c2.2-7,4.5-13.9,6.8-20.9c0.1-0.3,0.2-0.5,0.3-0.7c0.5-0.3,1-0.1,1.4,0c3.3,1,6.7,1.7,10,2.3c0.5,0.1,1,0.2,1.4,0.5
			C25.3,111.1,25.4,111.1,25.4,111.2z"/>
		<path class="st3" d="M84.2,43.8c0,6.6,0,13.3,0,20c-0.5-0.4-0.7-0.8-1-1.2c-3.4-4.7-8-7.8-13.6-9.3c-0.3-0.1-0.6-0.2-0.9-0.3
			c-1.3-0.7-2.5-1.5-4-0.6c-0.3,0.2-0.7,0.1-1.1,0.1c-3.8,0.1-7.7-0.1-11.5,0.1c-0.7,0-1-0.3-1.1-0.9c-0.1-0.5,0-1.1,0-1.7
			c0-12.4,0-24.8,0-37.2c0-0.8-0.2-1.6,0.4-2.3c5.6,0.1,10.7,1.8,15.5,4.5c0.2,0.1,0.5,0.3,0.7,0.4c2.1,0.5,3.5,2,5,3.3
			c4.8,4.3,8.3,9.5,10.3,15.7c0.2,0.5,0.2,1,0.2,1.5C83.5,38.5,84.1,41.1,84.2,43.8z"/>
		<path class="st3" d="M51.4,10.5c0,13.5,0,27,0,40.5c0,1.1,0.3,1.5,1.4,1.4c3.5-0.1,7,0,10.5,0c0.6,0,1.2,0.1,1.5-0.6
			c0-0.1,0.3-0.2,0.4-0.3c0.8-0.4,3.1,0.6,3.5,1.5c-4.9-0.7-9.8-0.2-14.6-0.4c-1.4-0.1-1.7,0.4-1.8,1.7c-0.1,1.4,0,2.8,0,4.2
			c-0.5-0.4-0.4-1-0.5-1.5c0-0.9,0-1.7,0-2.6c0-0.8-0.3-1.3-1.2-1.3c-4.1,0-8.3,0-12.4,0c-0.9,0-1.2,0.5-1.3,1.3
			c-0.1,1.6,0.3,3.1-0.3,4.7c-0.9,0.1-0.7-0.6-0.7-1.1c-0.1-1.2-0.1-2.4,0-3.6c0-1-0.4-1.4-1.4-1.3c-0.9,0-1.8,0.1-2.7-0.1
			c-2.4-0.4-4.8-0.2-7.1-0.1c-3.7,0.2-7.2,0.9-10.5,2.6c-0.4,0.2-0.8,0.4-1.3,0.1c-0.2-0.3-0.3-0.7-0.3-1c0-5.4-0.2-10.9,0.8-16.3
			c0.2-1,0.3-2,0.9-2.8c0.6-0.5,0.9,0,1.3,0.3c1,0.7,2,0.7,2.8-0.1c2.3-2.1,4.9-2.9,7.9-2.6c0.3,0,0.6,0,0.9,0
			c1-0.1,1.7-0.7,1.8-1.7c0.1-1-0.4-1.8-1.4-2c-2.4-0.6-4.7-0.5-7,0.3c-1.2,0.4-2.4,1.1-3.5,1.8c-0.4,0.3-0.8,0.7-1.4,0.7
			c-0.6-0.4-0.2-0.9,0-1.3c4.2-9.2,11.1-15.4,20.5-19c0.5-0.2,1.2-0.2,1.5-0.8c-0.2-0.5-0.9-0.3-1.1-0.7c0.6-0.3,1.3-0.2,1.9-0.2
			c0.6,0.7,0.4,1.5,0.4,2.3c0,12.3,0,24.6,0,36.9c0,2.5,0,2.5,2.5,2.5c1.8,0,3.7,0,5.5,0c2.4,0,2.4,0,2.4-2.5c0-10.1,0-20.2,0-30.3
			c0-2.4,0-4.9,0-7.3C49.7,10.5,49.9,10.3,51.4,10.5L51.4,10.5z"/>
		<path class="st4" d="M39.7,112.6c-4.8-0.1-9.6-0.9-14.3-1.4v-0.1c-0.3-0.4-0.2-0.9-0.1-1.3c0.9-3.8,1.9-7.5,2.9-11.3
			c0.1-0.3,0.2-0.6,0.5-0.8c2.1-0.1,4.2,0.4,6.3,0.6c6.5,0.6,13.1,0.7,19.6,0c1.8-0.2,3.6-0.5,5.3-0.6c3.7-0.5,7.4-1.2,11-2.2
			c0.9-0.2,1.8-0.7,2.8-0.1c1.2,4.2,2.4,8.3,3.6,12.5c-2.4,1.1-5,1.6-7.6,2.1c-4.2,0.9-8.4,1.6-12.6,2.1c-2.4,0.3-4.7,0.3-7.1,0.5
			c-2.3,0.1-3.1-0.7-3.1-2.9c0-0.8,0-1.5,0-2.3c-0.1-1.2-0.8-2-1.8-2.1s-1.8,0.5-2.1,1.7c-0.3,1-0.2,2-0.2,2.9
			C42.8,111.9,41.7,112.9,39.7,112.6z"/>
		<path class="st5" d="M51.4,10.5C50.3,10.4,50,10.8,50,12c0,13,0,25.9,0.1,38.9c0,1.2-0.2,1.7-1.5,1.6c-2.8-0.1-5.6-0.1-8.4,0
			c-1.2,0-1.5-0.3-1.5-1.5c0-13.6,0-27.1,0-40.7c3.9,0,7.8,0,11.7,0C50.7,10.3,51.1,10.4,51.4,10.5z"/>
		<path class="st1" d="M83,35.9c-1.2-3.8-2.8-7.4-5.1-10.7c-2.8-4-6.3-7.2-10.4-9.9c0.9-0.2,1-1.1,1.4-1.7c2-3.4,3.8-6.9,5.8-10.4
			c1.2-2.1,3-3.4,5.5-3.4c2.5,0.1,4.4,1.2,5.5,3.5c2.7,6.2,3.8,12.7,2.6,19.5C87.4,27.7,85.9,32.1,83,35.9z"/>
		<path class="st2" d="M5.6,36c-4.4-6.7-6.2-14-5.4-21.9C0.6,10.4,1.6,6.9,3,3.6C4,1.2,6,0.1,8.5,0s4.3,1.2,5.5,3.3
			c2.1,3.7,4.2,7.5,6.3,11.2c0.2,0.4,0.3,0.9,0.9,0.9c0,0.6-0.5,0.7-0.9,0.9C13.7,20.8,9,26.8,6.5,34.4C6.3,34.9,6.2,35.6,5.6,36z"
			/>
		<path class="st6" d="M5.6,36c2.6-8.8,7.7-15.7,15.5-20.6c4.8-2.9,10-4.7,15.6-4.9c0.2,0,0.4,0,0.5,0c0.4,0.1,1-0.2,1.1,0.4
			c0.1,0.7-0.4,0.8-0.9,1c-6.1,2-11.3,5.3-15.6,10.1c-2.7,3-4.8,6.3-6.2,10.1c-0.4,1-0.8,2.1-1.1,3.1c-0.9,2.3-1.2,4.7-1.4,7.2
			c-0.4,4.4-0.2,8.8-0.3,13.2c-0.1,0.5-0.5,0.7-0.9,1c-2.7,1.8-4.9,4-6.8,6.6c-0.2,0.3-0.4,0.9-1,0.7c0-6.1,0-12.1,0-18.2
			C4.4,42.5,4.8,39.2,5.6,36z"/>
		<path class="st1" d="M60.3,98.1c-6.3,1-12.6,1.3-18.9,1.1c-4.3-0.1-8.5-0.6-12.7-1.3c-0.4,0.3-0.8,0.2-1.2,0.1
			c-3.4-0.6-6.8-1.3-10.1-2.3c-0.4-0.1-0.9-0.2-1.1-0.7c0-0.1,0-0.2,0-0.3c1-0.6,2.3-0.4,3.3-0.8c5.1-1.4,8.7-4.5,10.5-9.5
			c0.2-0.5,0.3-1,0.8-1.2c0.6,0.1,0.9,0.6,1.2,1c5.6,6.5,15.1,7.3,21.8,2.5c0.7-0.5,1.3-1.1,1.9-1.7c0.4-0.3,0.7-0.9,1.4-0.6
			c0.4,1,0.5,2,0.5,3c-0.1,3.3,0.8,6.3,2.6,9C60.5,97.2,61,97.6,60.3,98.1z"/>
		<path class="st7" d="M19.7,94.4c-1.1,0.6-2.3,0.5-3.5,0.5C7.8,94.9,1.1,88,1,79.7c0-4.1,0.1-8.1,1.6-11.9c0.5-1.3,1.1-2.5,1.7-3.8
			c2.3-3.3,5.1-6.2,8.6-8.3c5.9-3.3,12.3-3.5,18.7-3c-0.3,0.4-0.7,0.4-1.1,0.4C18.7,53.5,8.3,63.7,8.4,77c0,2.9,0.1,5.8,1.2,8.5
			c1.7,3.9,4.6,6.6,8.5,8.2C18.7,93.9,19.3,93.9,19.7,94.4z"/>
		<path class="st8" d="M16.2,95.2c4.1,1.1,8.3,2,12.4,2.8c-0.3,2.5-1.2,4.8-1.7,7.2c-0.4,2-1,4-1.6,6c-4.4-0.7-8.7-1.7-13-2.9
			C13.7,103.8,15,99.5,16.2,95.2z"/>
		<path class="st2" d="M60.3,98.1c0.3-0.6-0.2-0.9-0.5-1.3c-1.6-2.6-2.6-5.4-2.5-8.5c0-1.2-0.2-2.5-0.3-3.7c-0.1-0.6,0-1.1,0.8-1
			C59,89,64.4,94,69.8,94.7c1.3,0.2,2.7,0.2,4,0.3c0,0.2,0,0.3,0,0.5c-1.4-0.1-2.6,0.5-3.9,0.8C66.8,97,63.6,97.7,60.3,98.1z"/>
		<path class="st9" d="M39.7,112.6c0.7-0.3,1.5-0.6,2.3-0.9c0.6-0.2,0.5-0.7,0.5-1.1c0.1-1.3-0.2-2.6,0.2-3.9c0.4-1.4,1.4-2,2.7-1.8
			c1.1,0.2,1.9,1.2,1.9,2.4c0,0.4,0,0.8,0,1.2c0,2.9,0,2.9,2.8,4c1.9,1.5,3.5,3.2,4.3,5.6c1.1,3.5-0.1,7.9-2.8,10.2
			c-3.2,2.7-6.8,3.4-10.7,1.6c-6.8-3.2-7.7-11.9-1.9-16.6C39.2,113.2,39.5,112.9,39.7,112.6z"/>
		<path class="st10" d="M57.9,83.6c-0.5,0.2-0.6,0.7-0.8,1c-2.1,2-4.3,3.8-7.1,4.8c-5.5,1.8-10.6,1.2-15.3-2.1
			c-1.5-1-2.6-2.4-3.8-3.7c0.1-4.8,0-9.6,3.5-13.5c1.6-1.8,3.5-3.2,5.9-3.8c0.7-0.2,1.4-0.4,2-0.8c1.3-0.1,2.7-0.3,4,0.2
			c0.2,0.5,0.7,0.5,1.1,0.6c5,1.5,8.3,4.6,9.6,9.7c0.6,2.2,0.2,4.5,0.7,6.7C57.7,83,57.8,83.3,57.9,83.6z"/>
		<path class="st11" d="M46.3,65.7c-1.4,0.2-2.7,0.1-4.1,0c-1.3,0.2-2.1-0.7-3-1.4c-1.3-0.9-2.1-2.3-2.7-3.7c-0.2-0.4-0.4-0.9,0-1.4
			c0-1.8,0.1-3.5,0-5.3c0-0.9,0.2-1.3,1.2-1.3c4.5,0,8.9,0,13.4,0c0.9,0,1.2,0.3,1.2,1.2c0,1.5,0,3.1,0,4.6c-0.2,3.3-2.3,6-5.5,7
			C46.5,65.5,46.4,65.6,46.3,65.7z"/>
		<path class="st1" d="M73.9,79.8c1.2,0,2.4,1.2,2.3,2.3c0,1.2-1.2,2.5-2.4,2.4c-1.3,0-2.4-1.1-2.4-2.4
			C71.5,80.9,72.6,79.8,73.9,79.8z"/>
		<path class="st1" d="M77.6,79c-1.2,0-2.4-1.1-2.4-2.2c0-1.2,1.1-2.3,2.5-2.4c1.2,0,2.4,1.1,2.4,2.3C80.1,78,79.1,79,77.6,79z"/>
		<path class="st1" d="M70.6,76.8c0,1.4-0.8,2.2-2.1,2.2c-1.6,0-2.5-0.8-2.5-2.4c0-1.2,1.1-2.3,2.4-2.3
			C69.8,74.4,70.6,75.3,70.6,76.8z"/>
		<path class="st11" d="M63.7,38.6c2.9,0,5,2.1,5,5c0,2.7-2.2,4.7-5,4.7c-2.7,0-5-1.8-5-4.9C58.8,40.6,61,38.5,63.7,38.6z"/>
		<path class="st12" d="M63,33.5c-0.5,0-0.9,0.1-1.4,0.1c-1.4,0-2.2-0.6-2.4-2c-0.2-1.2,0.4-2.2,1.6-2.6c1.9-0.6,3.8-0.5,5.7-0.1
			c2.5,0.6,4.7,1.7,6.5,3.4c1.3,1.3,1.4,2.6,0.4,3.7c-1,1.1-2.2,1.1-3.6-0.1C67.9,34.2,65.7,33.2,63,33.5z"/>
		<path class="st0" d="M36.5,59.2c0.3,2.3,1.6,4.1,3.5,5.4c0.7,0.5,1.5,0.8,2.2,1.2c-0.5,0.9-1.4,0.8-2.2,1
			c-4.2,1.2-7.5,5.5-8.4,9.7c-0.4,2,0,4.1-0.5,6.1c-0.1,0.3-0.2,0.7-0.3,1c-1.1,4-3.4,7.1-7,9.2c-1.3,0.8-2.6,1.4-4.1,1.6
			C14.2,93.5,8.9,87.5,8.3,82c-0.4-4.5-0.5-9,1.1-13.3c3.3-9.1,10-14.3,19.5-16c0.9-0.2,1.9-0.1,2.8-0.1c1.1,0,2.2,0,3.3-0.1
			c0.9-0.1,1.4,0.4,1.4,1.2C36.5,55.6,36.5,57.2,36.5,59.2z"/>
		<path class="st11" d="M24.9,48.4c-2.4,0.4-5.1-2.4-4.9-4.9c0.2-2.9,2.1-4.9,5-4.9c2.8,0,4.8,2,4.8,4.9S27.8,48.4,24.9,48.4z"/>
		<path class="st12" d="M14.6,35.3c-0.3-1.3,0.2-2.3,1.1-3.1c3.1-2.5,6.5-3.9,10.5-3.6c2,0.2,3.2,0.9,3.3,2.4
			c0.1,1.5-0.8,2.6-2.4,2.5c-1.6,0-3.2-0.3-4.8,0.3c-1.2,0.4-2.3,1.1-3.2,1.9C17.2,37.3,16.2,37.2,14.6,35.3z"/>
		<path class="st13" d="M51.1,121.2c-0.2,4-2.8,6.1-6.2,6.1c-3.6,0-6.2-2.6-6.2-6.2s2.4-6.1,6.4-6.2C48.5,115,51.1,117.7,51.1,121.2
			z"/>
		<path class="st1" d="M17.3,82.2c0,1.1-1.3,2.3-2.4,2.3c-1.2,0-2.5-1.3-2.4-2.4c0-1.3,1.2-2.4,2.5-2.4C16.2,79.8,17.3,81,17.3,82.2
			z"/>
		<path class="st1" d="M13.3,76.8c0,1.4-0.8,2.2-2.1,2.2c-1.6,0-2.5-0.8-2.5-2.3c0-1.2,1.1-2.3,2.3-2.3
			C12.4,74.4,13.3,75.3,13.3,76.8z"/>
		<path class="st1" d="M20.3,79c-1.3,0.3-2.4-1.2-2.5-2.3c-0.1-1.2,1.2-2.3,2.5-2.3c1.2,0,2.3,1.2,2.3,2.4C22.7,78,21.7,79,20.3,79z
			"/>
	</g>
</g>
</svg>
